HIERARCHY
ROOT Hips
{
  OFFSET 0 0 0
  CHANNELS 6 Xposition Yposition Zposition Zrotation Yrotation Xrotation
  JOINT LeftThigh
  {
    OFFSET 8.409438 0 -5.917753
    CHANNELS 3 Zrotation Yrotation Xrotation
    JOINT LeftLeg
    {
      OFFSET 0 0 -42.358652
      CHANNELS 3 Zrotation Yrotation Xrotation
      JOINT LeftFoot
      {
        OFFSET 0 0 -39.357303
        CHANNELS 3 Zrotation Yrotation Xrotation
      }
    }
  }
  JOINT RightThigh
  {
    OFFSET -8.409438 0 -5.917753
    CHANNELS 3 Zrotation Yrotation Xrotation
    JOINT RightLeg
    {
      OFFSET 0 0 -42.358652
      CHANNELS 3 Zrotation Yrotation Xrotation
      JOINT RightFoot
      {
        OFFSET 0 0 -39.357303
        CHANNELS 3 Zrotation Yrotation Xrotation
      }
    }
  }
  JOINT SpineLow
  {
    OFFSET 0 0 4.719101
    CHANNELS 3 Zrotation Yrotation Xrotation
    JOINT SpineMid
    {
      OFFSET 0 0 12.899191
      CHANNELS 3 Zrotation Yrotation Xrotation
      JOINT Chest
      {
        OFFSET 0 0 12.899191
        CHANNELS 3 Zrotation Yrotation Xrotation
        JOINT LeftShoulder
        {
          OFFSET 7.550562 1.41573 9.438202
          CHANNELS 3 Zrotation Yrotation Xrotation
          JOINT LeftArm
          {
            OFFSET 9.155056 0 4.247191
            CHANNELS 3 Zrotation Yrotation Xrotation
            JOINT LeftForearm
            {
              OFFSET 0 0 25.771955
              CHANNELS 3 Zrotation Yrotation Xrotation
              JOINT LeftHand
              {
                OFFSET 0 0 25.197169
                CHANNELS 3 Zrotation Yrotation Xrotation
              }
            }
          }
        }
        JOINT RightShoulder
        {
          OFFSET -7.550562 1.41573 9.438202
          CHANNELS 3 Zrotation Yrotation Xrotation
          JOINT RightArm
          {
            OFFSET -9.155056 0 4.247191
            CHANNELS 3 Zrotation Yrotation Xrotation
            JOINT RightForearm
            {
              OFFSET 0 0 -25.771955
              CHANNELS 3 Zrotation Yrotation Xrotation
              JOINT RightHand
              {
                OFFSET 0 0 -25.197169
                CHANNELS 3 Zrotation Yrotation Xrotation
              }
            }
          }
        }
        JOINT Neck
        {
          OFFSET 0 0 15.101124
          CHANNELS 3 Zrotation Yrotation Xrotation
          JOINT Head
          {
            OFFSET 0 0 11.325843
            CHANNELS 3 Zrotation Yrotation Xrotation
            End Site
            {
              OFFSET 0 0 14.157303
            }
          }
        }
      }
    }
  }
}
MOTION
Frames: 10
Frame Time: 0.0
0.0  93.25843  0.0  8.40549  -42.985623  -90.60487  18.520002  -5.680515  -2.719373  8.143325  0.438792  18.577713  8.330672  1.516302  5.623458  -3.785019  4.847483  -18.776607  7.269876  9.36984  13.931071  2.441014  0.882061  -0.75426  -5.463677  -1.039808  -1.981163  -14.848689  -3.269525  -5.153165  -14.848688  -3.269525  -5.153165  -14.025575  7.432706  10.011391  18.809263  62.113446  65.396979  -23.152699  -3.293755  141.39032  56.958448  -35.188135  17.498887  16.616838  1.605558  34.793518  54.89546  18.184667  44.346494  0.288639  -6.031276  -113.419402  58.603922  30.708886  -15.980395  30.272066  4.932484  4.752427  22.653332  3.946662  3.326638  
0.0  93.25843  0.0  8.443966  -42.19776  -90.631538  17.967604  -5.958172  -2.945812  8.027533  0.913742  18.944932  8.340248  1.563257  5.575762  -4.144755  4.872661  -18.769139  7.148162  9.628982  14.292779  2.448725  0.880918  -0.762339  -5.487384  -1.020589  -2.025664  -14.912381  -3.229067  -5.277148  -14.91238  -3.229067  -5.277149  -13.992251  7.558726  10.347474  19.01245  62.099806  65.857176  -23.304621  -4.426657  141.215531  57.274976  -35.221125  17.320235  16.690991  1.569928  34.947414  54.79996  18.304272  44.221431  0.250092  -5.871521  -113.440666  59.170756  30.737807  -15.619617  30.01783  5.116573  5.068584  22.457838  4.098554  3.55688  
0.0  93.25843  0.0  8.309589  -41.366617  -90.475799  19.182198  -6.02119  -2.355903  6.674869  1.287676  18.467077  7.842237  1.516983  5.249341  -4.697184  4.817  -18.918335  7.397047  9.844983  14.753977  2.213021  0.759629  -0.806413  -5.514569  -1.020885  -2.074976  -14.984063  -3.243048  -5.409729  -14.984064  -3.243048  -5.409729  -13.914035  7.79093  10.689156  19.451708  62.108683  66.540238  -23.329205  -5.52617  141.021812  57.803751  -35.161093  17.193333  16.55511  1.451621  34.93597  55.128256  18.483954  44.475699  -0.510233  -6.159172  -114.133724  59.727516  29.642728  -15.512701  29.812366  5.310088  5.373757  22.298646  4.257193  3.7781  
0.0  93.25843  0.0  8.156386  -40.424783  -90.323886  19.202875  -6.335372  -2.688254  6.143382  1.583134  18.788326  7.583141  1.56764  5.176829  -5.215991  4.805375  -18.94655  7.282674  9.962688  15.102997  2.262777  0.719633  -0.796653  -5.547745  -1.016172  -2.105232  -15.073464  -3.239709  -5.491266  -15.073464  -3.239709  -5.491266  -13.927644  8.03514  10.956679  19.804127  62.219323  67.027543  -23.480825  -6.407867  140.715178  58.275561  -35.096808  17.363733  16.70372  1.386981  35.059643  55.307518  18.814477  44.466364  -0.560489  -5.923183  -114.156125  60.265309  29.526352  -14.847964  29.572579  5.496829  5.532988  22.114817  4.403067  3.890344  
0.0  93.25843  0.0  7.887811  -39.514199  -90.118104  19.526718  -6.582383  -2.93776  5.322688  1.787115  18.96506  7.321011  1.593764  5.098483  -5.798033  4.729572  -19.002632  7.503647  10.045417  15.546569  2.172185  0.604768  -0.791863  -5.581154  -1.018489  -2.1264  -15.163503  -3.25349  -5.546505  -15.163502  -3.25349  -5.546506  -13.771925  8.369007  11.171952  19.796608  62.386463  67.196825  -23.749622  -7.194961  140.484362  58.61876  -35.068803  17.452127  16.695696  1.278488  35.013614  55.88215  19.148665  44.720286  -1.394877  -6.727719  -115.024902  60.96237  27.957103  -14.746294  29.403891  5.608027  5.608092  21.986044  4.488648  3.942643  
0.0  93.25843  0.0  7.687686  -38.39397  -89.903641  19.506686  -6.772713  -3.308619  4.470835  1.970356  19.153131  7.121626  1.615374  5.02898  -6.585936  4.683179  -19.081704  7.380667  10.117857  15.891507  2.229719  0.583067  -0.787393  -5.611926  -0.999205  -2.150565  -15.24768  -3.209153  -5.614878  -15.247679  -3.209153  -5.614878  -13.834402  8.679528  11.278043  19.421885  62.732624  66.911507  -24.070332  -7.749648  140.347005  58.89397  -35.049477  17.443131  16.801756  1.165653  35.096078  56.28165  19.524799  44.688889  -1.368494  -6.699183  -114.987481  61.352314  27.755422  -14.042279  29.154563  5.615591  5.56289  21.799439  4.489657  3.910426  
0.0  93.25843  0.0  7.351235  -37.151183  -89.594734  19.033348  -6.958857  -3.858201  3.891066  2.081622  19.45187  6.828987  1.597669  4.891067  -7.624284  4.453521  -19.194782  7.322656  10.163447  16.282993  2.283264  0.506803  -0.759934  -5.694321  -1.008272  -2.190737  -15.470115  -3.249834  -5.717587  -15.470115  -3.249833  -5.717586  -12.395379  9.566604  11.604998  17.120307  62.628898  65.720741  -24.427994  -8.030819  140.255066  59.096861  -35.028685  17.47723  17.193444  1.089942  35.297787  56.674254  19.885567  44.60993  -1.319056  -6.726097  -114.940512  61.702742  27.462512  -13.338291  29.121475  5.548074  5.564899  21.775663  4.438651  3.915557  
0.0  93.25843  0.0  7.229782  -35.921002  -89.395092  18.547847  -6.990501  -4.263551  3.278088  2.17173  19.615714  6.715615  1.616313  4.8679  -8.649056  4.396914  -19.325459  7.220196  10.278172  16.60214  2.34769  0.499204  -0.752429  -5.700337  -0.981527  -2.221216  -15.486877  -3.184825  -5.806222  -15.486877  -3.184825  -5.806222  -12.35425  9.975486  11.654302  15.555906  63.296824  64.412331  -24.826494  -8.201505  140.212172  59.128179  -34.997501  17.612798  17.280029  1.032455  35.430269  57.035399  20.240186  44.403644  -1.298476  -6.732089  -114.869704  62.059131  27.182699  -12.611458  28.823444  5.429901  5.455924  21.55497  4.341649  3.841963  
0.0  93.25843  0.0  6.991274  -34.594352  -89.0683  17.552626  -7.108019  -4.923325  3.140696  2.22637  20.011096  6.546933  1.592315  4.803399  -9.638583  4.207965  -19.377933  7.278348  10.369633  16.988878  2.336178  0.534467  -0.811319  -5.740251  -0.973955  -2.250186  -15.595001  -3.174436  -5.884571  -15.595003  -3.174436  -5.884571  -11.897911  10.396641  11.741466  13.353654  64.10646  62.658362  -25.293212  -8.272147  140.195593  59.019035  -34.875004  17.928038  17.609197  1.00838  35.611259  57.374692  20.5835  44.06772  -1.329112  -6.692429  -114.782854  62.505818  26.878029  -11.869448  28.648294  5.305918  5.328881  21.426543  4.240721  3.753963  
0.0  93.25843  0.0  6.901993  -33.132075  -88.778184  16.53203  -7.10201  -5.52418  2.956901  2.254629  20.336834  6.450118  1.609614  4.806191  -10.737953  4.095912  -19.486285  6.908046  10.662297  17.107156  2.413976  0.556352  -0.801337  -5.723127  -0.928733  -2.264529  -15.550853  -3.053584  -5.934845  -15.550853  -3.053584  -5.934845  -11.863914  10.641627  11.715155  10.78735  65.158359  60.558766  -25.817807  -8.322665  140.174272  58.76254  -34.639707  18.420215  17.622649  0.933914  35.688325  57.646855  20.94614  43.60639  -1.433561  -6.55779  -114.689185  63.01091  26.539125  -11.090136  28.180176  5.132484  5.099112  21.079931  4.095205  3.593364  
